<?xml version="1.0" encoding="UTF-8"?>
<!DOCTYPE svg PUBLIC "-//W3C//DTD SVG 1.1//EN" "http://www.w3.org/Graphics/SVG/1.1/DTD/svg11.dtd">
<svg xmlns="http://www.w3.org/2000/svg" version="1.1" width="1451px" height="243px" style="shape-rendering:geometricPrecision; text-rendering:geometricPrecision; image-rendering:optimizeQuality; fill-rule:evenodd; clip-rule:evenodd" xmlns:xlink="http://www.w3.org/1999/xlink">
<g><path style="opacity:1" fill="#fefefe" d="M -0.5,-0.5 C 483.167,-0.5 966.833,-0.5 1450.5,-0.5C 1450.5,80.5 1450.5,161.5 1450.5,242.5C 966.833,242.5 483.167,242.5 -0.5,242.5C -0.5,161.5 -0.5,80.5 -0.5,-0.5 Z"/></g>
<g><path style="opacity:1" fill="#010101" d="M 27.5,29.5 C 73.5,29.5 119.5,29.5 165.5,29.5C 165.5,40.1667 165.5,50.8333 165.5,61.5C 131.833,61.5 98.1667,61.5 64.5,61.5C 64.5,75.1667 64.5,88.8333 64.5,102.5C 95.3288,103.498 126.329,103.831 157.5,103.5C 157.5,113.833 157.5,124.167 157.5,134.5C 126.5,134.5 95.5,134.5 64.5,134.5C 64.5,151.167 64.5,167.833 64.5,184.5C 99.1667,184.5 133.833,184.5 168.5,184.5C 168.5,194.833 168.5,205.167 168.5,215.5C 121.5,215.5 74.5,215.5 27.5,215.5C 27.5,153.5 27.5,91.5 27.5,29.5 Z"/></g>
<g><path style="opacity:1" fill="#f8c7a7" d="M 1267.5,29.5 C 1255.83,29.5 1244.17,29.5 1232.5,29.5C 1232.5,40.5 1232.5,51.5 1232.5,62.5C 1244.17,62.5 1255.83,62.5 1267.5,62.5C 1255.68,63.4951 1243.68,63.8284 1231.5,63.5C 1231.5,51.8333 1231.5,40.1667 1231.5,28.5C 1243.68,28.1716 1255.68,28.5049 1267.5,29.5 Z"/></g>
<g><path style="opacity:1" fill="#ee7c32" d="M 1267.5,29.5 C 1267.5,40.5 1267.5,51.5 1267.5,62.5C 1255.83,62.5 1244.17,62.5 1232.5,62.5C 1232.5,51.5 1232.5,40.5 1232.5,29.5C 1244.17,29.5 1255.83,29.5 1267.5,29.5 Z"/></g>
<g><path style="opacity:1" fill="#8eb6fb" d="M 382.5,34.5 C 382.56,33.9569 382.893,33.6236 383.5,33.5C 384.499,49.1525 384.833,64.8192 384.5,80.5C 383.833,65.1667 383.167,49.8333 382.5,34.5 Z"/></g>
<g><path style="opacity:1" fill="#525252" d="M 730.5,34.5 C 730.56,33.9569 730.893,33.6236 731.5,33.5C 732.499,49.1525 732.833,64.8192 732.5,80.5C 731.833,65.1667 731.167,49.8333 730.5,34.5 Z"/></g>
<g><path style="opacity:1" fill="#3a80f9" d="M 382.5,34.5 C 383.167,49.8333 383.833,65.1667 384.5,80.5C 392.5,80.5 400.5,80.5 408.5,80.5C 408.5,90.1667 408.5,99.8333 408.5,109.5C 400.5,109.5 392.5,109.5 384.5,109.5C 384.333,134.502 384.5,159.502 385,184.5C 385.785,186.286 386.951,187.786 388.5,189C 394.629,189.823 400.629,189.323 406.5,187.5C 408.083,189.508 409.083,191.841 409.5,194.5C 410.792,201.111 410.792,207.777 409.5,214.5C 398.545,218.325 387.211,219.991 375.5,219.5C 373.485,218.076 371.152,217.41 368.5,217.5C 361.006,215.002 355.34,210.336 351.5,203.5C 351.59,200.848 350.924,198.515 349.5,196.5C 347.651,167.546 346.984,138.546 347.5,109.5C 342.695,108.513 337.695,108.179 332.5,108.5C 332.5,99.1667 332.5,89.8333 332.5,80.5C 337.5,80.5 342.5,80.5 347.5,80.5C 347.168,71.4754 347.502,62.4754 348.5,53.5C 359.867,47.1106 371.201,40.7772 382.5,34.5 Z"/></g>
<g><path style="opacity:1" fill="#030303" d="M 730.5,34.5 C 731.167,49.8333 731.833,65.1667 732.5,80.5C 740.5,80.5 748.5,80.5 756.5,80.5C 756.5,90.1667 756.5,99.8333 756.5,109.5C 748.5,109.5 740.5,109.5 732.5,109.5C 732.333,134.502 732.5,159.502 733,184.5C 733.785,186.286 734.951,187.786 736.5,189C 742.647,189.899 748.647,189.399 754.5,187.5C 756.083,189.508 757.083,191.841 757.5,194.5C 758.769,201.168 759.103,207.835 758.5,214.5C 744.091,219.827 729.425,220.661 714.5,217C 703.852,211.89 698.019,203.39 697,191.5C 696.501,185.509 696.334,179.509 696.5,173.5C 696.5,151.833 696.5,130.167 696.5,108.5C 691.167,108.5 685.833,108.5 680.5,108.5C 680.5,99.1667 680.5,89.8333 680.5,80.5C 685.833,80.5 691.167,80.5 696.5,80.5C 696.334,71.4938 696.5,62.4938 697,53.5C 708.072,46.9108 719.239,40.5775 730.5,34.5 Z"/></g>
<g><path style="opacity:1" fill="#bbd2fc" d="M 261.5,77.5 C 251.815,77.4216 242.148,77.7549 232.5,78.5C 238.092,77.0075 243.926,76.3408 250,76.5C 254.015,76.5012 257.849,76.8345 261.5,77.5 Z"/></g>
<g><path style="opacity:1" fill="#fad0b6" d="M 1366.5,77.5 C 1357.48,77.4484 1348.48,77.7817 1339.5,78.5C 1344.76,77.0249 1350.26,76.3582 1356,76.5C 1359.68,76.5014 1363.18,76.8348 1366.5,77.5 Z"/></g>
<g><path style="opacity:1" fill="#3980f9" d="M 261.5,77.5 C 279.967,77.9153 294.467,85.5819 305,100.5C 307.684,104.863 309.518,109.53 310.5,114.5C 299.457,116.242 288.457,118.242 277.5,120.5C 272.492,107.888 262.992,101.888 249,102.5C 243.693,102.452 238.526,103.285 233.5,105C 224.988,109.739 224.321,115.406 231.5,122C 244.184,126.616 257.184,130.116 270.5,132.5C 273.215,134.072 276.215,135.072 279.5,135.5C 290.881,138.442 300.715,144.109 309,152.5C 310.094,154.078 310.928,155.745 311.5,157.5C 313.791,167.385 314.125,177.385 312.5,187.5C 305.09,204.059 292.424,214.225 274.5,218C 260.162,219.901 245.828,219.901 231.5,218C 208.9,213.232 194.566,199.732 188.5,177.5C 199.854,176.386 211.187,175.052 222.5,173.5C 223.442,173.608 224.275,173.941 225,174.5C 229.054,188.532 238.388,194.866 253,193.5C 263.452,195.025 271.785,191.692 278,183.5C 279.495,178.431 278.328,174.264 274.5,171C 257.853,166.341 241.186,161.674 224.5,157C 202.435,150.377 192.101,135.544 193.5,112.5C 194.924,110.485 195.59,108.152 195.5,105.5C 202.594,89.4416 214.927,80.4416 232.5,78.5C 242.148,77.7549 251.815,77.4216 261.5,77.5 Z"/></g>
<g><path style="opacity:1" fill="#377ff9" d="M 495.5,109.5 C 492.696,108.362 489.696,108.195 486.5,109C 484.68,109.2 483.347,110.034 482.5,111.5C 476.579,114.282 472.746,118.949 471,125.5C 468.485,137.351 467.319,149.351 467.5,161.5C 466.503,179.326 466.17,197.326 466.5,215.5C 455.167,215.5 443.833,215.5 432.5,215.5C 432.5,170.5 432.5,125.5 432.5,80.5C 443.167,80.5 453.833,80.5 464.5,80.5C 464.171,86.5368 464.504,92.5368 465.5,98.5C 466.107,98.3764 466.44,98.0431 466.5,97.5C 476.981,77.6158 492.648,72.1158 513.5,81C 515.813,81.6409 517.48,82.9743 518.5,85C 515.892,95.3356 512.225,105.169 507.5,114.5C 503.697,112.262 499.697,110.596 495.5,109.5 Z"/></g>
<g><path style="opacity:1" fill="#ee7d33" d="M 897.5,158.5 C 867.5,158.5 837.5,158.5 807.5,158.5C 807.205,160.735 807.539,162.735 808.5,164.5C 813.445,189.638 827.778,197.471 851.5,188C 855.184,184.483 857.851,180.316 859.5,175.5C 860.5,175.167 861.5,174.833 862.5,174.5C 873.591,176.692 884.591,179.025 895.5,181.5C 888.011,200.663 874.344,212.663 854.5,217.5C 843.884,219.58 833.218,219.914 822.5,218.5C 794.894,213.06 778.394,196.393 773,168.5C 767.886,144.606 771.552,122.273 784,101.5C 804.656,77.075 830.156,70.575 860.5,82C 879.982,92.1353 891.815,107.969 896,129.5C 897.198,139.13 897.698,148.796 897.5,158.5 Z"/></g>
<g><path style="opacity:1" fill="#ee7d34" d="M 969.5,218.5 C 967.485,217.076 965.152,216.41 962.5,216.5C 943.349,210.851 930.516,198.518 924,179.5C 915.253,154.075 916.919,129.408 929,105.5C 938.646,90.753 952.146,81.5863 969.5,78C 981.199,77.232 992.865,77.5653 1004.5,79C 1024.8,84.1324 1038.13,96.6324 1044.5,116.5C 1044.18,117.647 1043.52,118.481 1042.5,119C 1031.51,120.943 1020.51,122.776 1009.5,124.5C 1008.1,115.88 1003.44,109.713 995.5,106C 975.707,100.806 962.874,107.972 957,127.5C 954.808,140.564 955.142,153.564 958,166.5C 962.743,184.964 974.576,192.464 993.5,189C 997.51,187.657 1001.01,185.491 1004,182.5C 1007.52,176.448 1010.35,170.114 1012.5,163.5C 1023.82,165.63 1035.15,167.63 1046.5,169.5C 1039.36,202.622 1018.69,219.289 984.5,219.5C 979.486,219.277 974.486,218.944 969.5,218.5 Z"/></g>
<g><path style="opacity:1" fill="#ee7d33" d="M 1141.5,77.5 C 1156.66,75.3892 1170.32,78.8892 1182.5,88C 1189.57,94.6428 1193.57,102.809 1194.5,112.5C 1194.5,146.833 1194.5,181.167 1194.5,215.5C 1183.17,215.5 1171.83,215.5 1160.5,215.5C 1160.83,187.328 1160.5,159.328 1159.5,131.5C 1159.38,126.951 1158.71,122.618 1157.5,118.5C 1155.72,112.22 1151.72,108.053 1145.5,106C 1121.07,102.752 1108.57,113.585 1108,138.5C 1107.5,164.498 1107.33,190.498 1107.5,216.5C 1095.5,216.5 1083.5,216.5 1071.5,216.5C 1071.5,171.167 1071.5,125.833 1071.5,80.5C 1082.5,80.5 1093.5,80.5 1104.5,80.5C 1104.17,86.8682 1104.5,93.2015 1105.5,99.5C 1106.11,99.3764 1106.44,99.0431 1106.5,98.5C 1112.69,91.3099 1120.02,85.6432 1128.5,81.5C 1133.16,80.9431 1137.5,79.6098 1141.5,77.5 Z"/></g>
<g><path style="opacity:1" fill="#ee7d34" d="M 1366.5,77.5 C 1383.45,77.1966 1397.61,83.1966 1409,95.5C 1411.79,100.464 1413.46,105.797 1414,111.5C 1414.33,139.167 1414.67,166.833 1415,194.5C 1416.74,200.548 1418.57,206.548 1420.5,212.5C 1420.5,213.5 1420.5,214.5 1420.5,215.5C 1409.17,215.5 1397.83,215.5 1386.5,215.5C 1385.62,210.762 1383.95,206.429 1381.5,202.5C 1364.87,217.338 1345.53,222.504 1323.5,218C 1301.51,208.861 1292.34,192.361 1296,168.5C 1299.65,156.185 1307.48,147.685 1319.5,143C 1333.23,138.6 1347.23,135.267 1361.5,133C 1367.44,131.353 1373.27,129.52 1379,127.5C 1381.29,117.742 1378.12,110.576 1369.5,106C 1360.83,104.044 1352.16,104.044 1343.5,106C 1337.75,109.29 1333.75,114.123 1331.5,120.5C 1330.17,120.833 1328.83,121.167 1327.5,121.5C 1318.5,119.751 1309.5,118.084 1300.5,116.5C 1299.37,114.926 1299.2,113.259 1300,111.5C 1306.37,92.2873 1319.54,81.2873 1339.5,78.5C 1348.48,77.7817 1357.48,77.4484 1366.5,77.5 Z"/></g>
<g><path style="opacity:1" fill="#f49c64" d="M 1141.5,77.5 C 1137.5,79.6098 1133.16,80.9431 1128.5,81.5C 1132.5,79.3902 1136.84,78.0569 1141.5,77.5 Z"/></g>
<g><path style="opacity:1" fill="#5d97fa" d="M 432.5,80.5 C 432.5,125.5 432.5,170.5 432.5,215.5C 443.833,215.5 455.167,215.5 466.5,215.5C 466.17,197.326 466.503,179.326 467.5,161.5C 467.5,179.833 467.5,198.167 467.5,216.5C 455.5,216.5 443.5,216.5 431.5,216.5C 431.168,170.997 431.501,125.664 432.5,80.5 Z"/></g>
<g><path style="opacity:1" fill="#90b9fb" d="M 464.5,80.5 C 465.167,86.1667 465.833,91.8333 466.5,97.5C 466.44,98.0431 466.107,98.3764 465.5,98.5C 464.504,92.5368 464.171,86.5368 464.5,80.5 Z"/></g>
<g><path style="opacity:1" fill="#387ff9" d="M 570.5,80.5 C 570.333,111.168 570.5,141.835 571,172.5C 571.198,174.382 571.698,176.048 572.5,177.5C 575.195,187.948 582.029,192.948 593,192.5C 607.156,191.332 616.156,183.999 620,170.5C 621.131,164.888 621.631,159.221 621.5,153.5C 622.498,129.672 622.831,105.672 622.5,81.5C 633.833,81.5 645.167,81.5 656.5,81.5C 656.5,126.167 656.5,170.833 656.5,215.5C 646.167,215.5 635.833,215.5 625.5,215.5C 625.823,208.978 625.49,202.645 624.5,196.5C 623.094,196.973 622.427,197.973 622.5,199.5C 607.939,215.44 589.939,221.774 568.5,218.5C 566.485,217.076 564.152,216.41 561.5,216.5C 551.359,212.862 543.859,206.196 539,196.5C 537.241,191.289 535.908,185.956 535,180.5C 534.5,147.168 534.333,113.835 534.5,80.5C 546.5,80.5 558.5,80.5 570.5,80.5 Z"/></g>
<g><path style="opacity:1" fill="#e7effe" d="M 570.5,80.5 C 571.235,112.675 571.901,145.008 572.5,177.5C 571.698,176.048 571.198,174.382 571,172.5C 570.5,141.835 570.333,111.168 570.5,80.5 Z"/></g>
<g><path style="opacity:1" fill="#5791f9" d="M 624.5,216.5 C 624.5,209.833 624.5,203.167 624.5,196.5C 625.49,202.645 625.823,208.978 625.5,215.5C 635.833,215.5 646.167,215.5 656.5,215.5C 656.5,170.833 656.5,126.167 656.5,81.5C 645.167,81.5 633.833,81.5 622.5,81.5C 622.831,105.672 622.498,129.672 621.5,153.5C 621.5,129.167 621.5,104.833 621.5,80.5C 633.5,80.5 645.5,80.5 657.5,80.5C 657.5,125.833 657.5,171.167 657.5,216.5C 646.5,216.5 635.5,216.5 624.5,216.5 Z"/></g>
<g><path style="opacity:1" fill="#f4ac7e" d="M 1104.5,80.5 C 1105.17,86.5 1105.83,92.5 1106.5,98.5C 1106.44,99.0431 1106.11,99.3764 1105.5,99.5C 1104.5,93.2015 1104.17,86.8682 1104.5,80.5 Z"/></g>
<g><path style="opacity:1" fill="#ee7e35" d="M 1231.5,80.5 C 1243.5,80.5 1255.5,80.5 1267.5,80.5C 1267.5,125.833 1267.5,171.167 1267.5,216.5C 1255.5,216.5 1243.5,216.5 1231.5,216.5C 1231.5,171.167 1231.5,125.833 1231.5,80.5 Z"/></g>
<g><path style="opacity:1" fill="#464646" d="M 64.5,102.5 C 95.8333,102.5 127.167,102.5 158.5,102.5C 158.5,113.167 158.5,123.833 158.5,134.5C 158.167,134.5 157.833,134.5 157.5,134.5C 157.5,124.167 157.5,113.833 157.5,103.5C 126.329,103.831 95.3288,103.498 64.5,102.5 Z"/></g>
<g><path style="opacity:1" fill="#fefdfc" d="M 860.5,125.5 C 860.423,129.215 860.756,132.881 861.5,136.5C 844.167,136.5 826.833,136.5 809.5,136.5C 809.5,133.167 809.5,129.833 809.5,126.5C 814.186,108.657 825.519,101.823 843.5,106C 852.933,109.263 858.599,115.763 860.5,125.5 Z"/></g>
<g><path style="opacity:1" fill="#6fa2fa" d="M 332.5,80.5 C 332.5,89.8333 332.5,99.1667 332.5,108.5C 337.695,108.179 342.695,108.513 347.5,109.5C 342.167,109.5 336.833,109.5 331.5,109.5C 331.173,99.6522 331.506,89.9856 332.5,80.5 Z"/></g>
<g><path style="opacity:1" fill="#85aefb" d="M 495.5,109.5 C 491.007,109.269 486.674,109.936 482.5,111.5C 483.347,110.034 484.68,109.2 486.5,109C 489.696,108.195 492.696,108.362 495.5,109.5 Z"/></g>
<g><path style="opacity:1" fill="#646464" d="M 680.5,80.5 C 680.5,89.8333 680.5,99.1667 680.5,108.5C 685.833,108.5 691.167,108.5 696.5,108.5C 696.5,130.167 696.5,151.833 696.5,173.5C 695.503,152.34 695.169,131.007 695.5,109.5C 690.167,109.5 684.833,109.5 679.5,109.5C 679.173,99.6522 679.506,89.9856 680.5,80.5 Z"/></g>
<g><path style="opacity:1" fill="#99bcfb" d="M 195.5,105.5 C 195.59,108.152 194.924,110.485 193.5,112.5C 193.41,109.848 194.076,107.515 195.5,105.5 Z"/></g>
<g><path style="opacity:1" fill="#b0cafc" d="M 270.5,132.5 C 273.916,132.528 276.916,133.528 279.5,135.5C 276.215,135.072 273.215,134.072 270.5,132.5 Z"/></g>
<g><path style="opacity:1" fill="#f19357" d="M 1194.5,112.5 C 1195.5,146.996 1195.83,181.663 1195.5,216.5C 1183.5,216.5 1171.5,216.5 1159.5,216.5C 1159.5,188.167 1159.5,159.833 1159.5,131.5C 1160.5,159.328 1160.83,187.328 1160.5,215.5C 1171.83,215.5 1183.17,215.5 1194.5,215.5C 1194.5,181.167 1194.5,146.833 1194.5,112.5 Z"/></g>
<g><path style="opacity:1" fill="#fad4bc" d="M 860.5,125.5 C 861.989,129.236 862.656,133.236 862.5,137.5C 844.5,137.5 826.5,137.5 808.5,137.5C 808.185,133.629 808.518,129.962 809.5,126.5C 809.5,129.833 809.5,133.167 809.5,136.5C 826.833,136.5 844.167,136.5 861.5,136.5C 860.756,132.881 860.423,129.215 860.5,125.5 Z"/></g>
<g><path style="opacity:1" fill="#fbe7d9" d="M 1157.5,118.5 C 1158.71,122.618 1159.38,126.951 1159.5,131.5C 1159.5,159.833 1159.5,188.167 1159.5,216.5C 1158.77,183.992 1158.1,151.325 1157.5,118.5 Z"/></g>
<g><path style="opacity:1" fill="#fefcfa" d="M 1375.5,151.5 C 1376.83,151.5 1378.17,151.5 1379.5,151.5C 1380.72,162.765 1378.88,173.432 1374,183.5C 1365.63,192.288 1355.47,195.454 1343.5,193C 1332.31,187.481 1328.81,178.981 1333,167.5C 1335.57,164.269 1338.73,161.769 1342.5,160C 1353.67,157.292 1364.67,154.459 1375.5,151.5 Z"/></g>
<g><path style="opacity:1" fill="#f9d5be" d="M 897.5,158.5 C 868.005,159.498 838.338,159.831 808.5,159.5C 808.5,161.167 808.5,162.833 808.5,164.5C 807.539,162.735 807.205,160.735 807.5,158.5C 837.5,158.5 867.5,158.5 897.5,158.5 Z"/></g>
<g><path style="opacity:1" fill="#5e94fa" d="M 311.5,157.5 C 312.793,158.842 313.626,160.509 314,162.5C 314.167,166 314.333,169.5 314.5,173C 314.707,178.102 314.04,182.935 312.5,187.5C 314.125,177.385 313.791,167.385 311.5,157.5 Z"/></g>
<g><path style="opacity:1" fill="#cdcdcd" d="M 157.5,134.5 C 157.833,134.5 158.167,134.5 158.5,134.5C 127.671,135.498 96.6712,135.831 65.5,135.5C 65.5,151.5 65.5,167.5 65.5,183.5C 100.337,183.168 135.004,183.502 169.5,184.5C 169.167,184.5 168.833,184.5 168.5,184.5C 133.833,184.5 99.1667,184.5 64.5,184.5C 64.5,167.833 64.5,151.167 64.5,134.5C 95.5,134.5 126.5,134.5 157.5,134.5 Z"/></g>
<g><path style="opacity:1" fill="#95b9fc" d="M 406.5,187.5 C 407.209,186.596 408.209,186.263 409.5,186.5C 409.5,189.167 409.5,191.833 409.5,194.5C 409.083,191.841 408.083,189.508 406.5,187.5 Z"/></g>
<g><path style="opacity:1" fill="#606060" d="M 754.5,187.5 C 755.209,186.596 756.209,186.263 757.5,186.5C 757.5,189.167 757.5,191.833 757.5,194.5C 757.083,191.841 756.083,189.508 754.5,187.5 Z"/></g>
<g><path style="opacity:1" fill="#caddfd" d="M 624.5,196.5 C 624.5,203.167 624.5,209.833 624.5,216.5C 623.833,210.833 623.167,205.167 622.5,199.5C 622.427,197.973 623.094,196.973 624.5,196.5 Z"/></g>
<g><path style="opacity:1" fill="#b5cefc" d="M 349.5,196.5 C 350.924,198.515 351.59,200.848 351.5,203.5C 350.076,201.485 349.41,199.152 349.5,196.5 Z"/></g>
<g><path style="opacity:1" fill="#3a3a3a" d="M 27.5,29.5 C 27.5,91.5 27.5,153.5 27.5,215.5C 74.5,215.5 121.5,215.5 168.5,215.5C 168.5,205.167 168.5,194.833 168.5,184.5C 168.833,184.5 169.167,184.5 169.5,184.5C 169.5,195.167 169.5,205.833 169.5,216.5C 121.833,216.5 74.1667,216.5 26.5,216.5C 26.1676,153.998 26.5009,91.6644 27.5,29.5 Z"/></g>
<g><path style="opacity:1" fill="#f19356" d="M 1420.5,212.5 C 1421.39,213.261 1422.06,214.261 1422.5,215.5C 1410.34,216.825 1398.34,216.825 1386.5,215.5C 1397.83,215.5 1409.17,215.5 1420.5,215.5C 1420.5,214.5 1420.5,213.5 1420.5,212.5 Z"/></g>
<g><path style="opacity:1" fill="#7ca8fb" d="M 561.5,216.5 C 564.152,216.41 566.485,217.076 568.5,218.5C 565.848,218.59 563.515,217.924 561.5,216.5 Z"/></g>
<g><path style="opacity:1" fill="#f5ae80" d="M 962.5,216.5 C 965.152,216.41 967.485,217.076 969.5,218.5C 966.848,218.59 964.515,217.924 962.5,216.5 Z"/></g>
<g><path style="opacity:1" fill="#afcafc" d="M 368.5,217.5 C 371.152,217.41 373.485,218.076 375.5,219.5C 372.848,219.59 370.515,218.924 368.5,217.5 Z"/></g>
<g><path style="opacity:1" fill="#fce0cf" d="M 854.5,217.5 C 848.687,219.829 842.521,220.829 836,220.5C 831.228,220.692 826.728,220.025 822.5,218.5C 833.218,219.914 843.884,219.58 854.5,217.5 Z"/></g>
</svg>
